# Blender v2.82 (sub 7) OBJ File: 'player_tokens.blend'
# www.blender.org
mtllib donkey.mtl
o donkey_Plane
v -0.189492 -0.150000 0.332240
v -0.271616 -0.150000 0.628823
v -0.308356 -0.150000 0.663401
v -0.284583 -0.150000 0.648273
v -0.453154 -0.150000 0.661240
v -0.474765 -0.150000 0.650434
v -0.490399 -0.150000 0.622641
v -0.478240 -0.150000 0.578347
v -0.440893 -0.150000 0.463702
v -0.423523 -0.150000 0.318659
v -0.435682 -0.150000 0.074604
v -0.484319 -0.150000 -0.134710
v -0.566829 -0.150000 -0.046121
v -0.631100 -0.150000 -0.004432
v -0.676263 -0.150000 0.003385
v -0.724031 -0.150000 -0.007906
v -0.759641 -0.150000 -0.034830
v -0.786565 -0.150000 -0.079125
v -0.790039 -0.150000 -0.158160
v -0.777880 -0.150000 -0.316231
v -0.736191 -0.150000 -0.462143
v -0.671920 -0.150000 -0.569840
v -0.671920 -0.150000 -0.678405
v -0.658024 -0.150000 -0.753967
v -0.618940 -0.150000 -0.819975
v -0.597227 -0.150000 -0.833871
v -0.576383 -0.150000 -0.833871
v -0.555538 -0.150000 -0.824317
v -0.543379 -0.150000 -0.806947
v -0.535562 -0.150000 -0.775680
v -0.524271 -0.150000 -0.715752
v -0.482582 -0.150000 -0.613266
v -0.405284 -0.150000 -0.463880
v -0.371411 -0.150000 -0.404821
v -0.300192 -0.150000 -0.344024
v -0.195970 -0.150000 -0.303204
v 0.201814 -0.150000 -0.303204
v 0.374650 -0.150000 -0.348367
v 0.500585 -0.150000 -0.367474
v 0.596991 -0.150000 -0.350972
v 0.664736 -0.150000 -0.305809
v 0.718584 -0.150000 -0.235459
v 0.759405 -0.150000 -0.137316
v 0.768090 -0.150000 -0.000958
v 0.757668 -0.150000 0.096317
v 0.716847 -0.150000 0.185775
v 0.670816 -0.150000 0.249177
v 0.572673 -0.150000 0.323870
v 0.669079 -0.150000 0.613088
v 0.663867 -0.150000 0.634801
v 0.645629 -0.150000 0.653909
v 0.627389 -0.150000 0.662594
v 0.448474 -0.150000 0.663462
v 0.431972 -0.150000 0.655645
v 0.417207 -0.150000 0.639143
v 0.321670 -0.150000 0.336898
v 0.145360 -0.150000 0.357742
v -0.031819 -0.150000 0.353400
v -0.308356 0.150000 0.663401
v -0.453154 0.150000 0.661240
v -0.189492 0.150000 0.332240
v -0.271616 0.150000 0.628823
v -0.284583 0.150000 0.648273
v -0.474765 0.150000 0.650434
v -0.490399 0.150000 0.622641
v -0.478240 0.150000 0.578347
v -0.440893 0.150000 0.463702
v -0.423523 0.150000 0.318659
v -0.435682 0.150000 0.074604
v -0.484319 0.150000 -0.134710
v -0.566829 0.150000 -0.046121
v -0.631100 0.150000 -0.004432
v -0.676263 0.150000 0.003385
v -0.724031 0.150000 -0.007906
v -0.759641 0.150000 -0.034830
v -0.786565 0.150000 -0.079125
v -0.790039 0.150000 -0.158160
v -0.777880 0.150000 -0.316231
v -0.736191 0.150000 -0.462143
v -0.671920 0.150000 -0.569840
v -0.671920 0.150000 -0.678405
v -0.658024 0.150000 -0.753967
v -0.618940 0.150000 -0.819975
v -0.597227 0.150000 -0.833871
v -0.576383 0.150000 -0.833871
v -0.555538 0.150000 -0.824317
v -0.543379 0.150000 -0.806947
v -0.535562 0.150000 -0.775680
v -0.524271 0.150000 -0.715752
v -0.482582 0.150000 -0.613266
v -0.405284 0.150000 -0.463880
v -0.371411 0.150000 -0.404821
v -0.300192 0.150000 -0.344024
v -0.195970 0.150000 -0.303204
v 0.201814 0.150000 -0.303204
v 0.374650 0.150000 -0.348367
v 0.500585 0.150000 -0.367474
v 0.596991 0.150000 -0.350972
v 0.664736 0.150000 -0.305809
v 0.718584 0.150000 -0.235459
v 0.759405 0.150000 -0.137316
v 0.768090 0.150000 -0.000958
v 0.757668 0.150000 0.096317
v 0.716847 0.150000 0.185775
v 0.670816 0.150000 0.249177
v 0.572673 0.150000 0.323870
v 0.669079 0.150000 0.613088
v 0.663867 0.150000 0.634801
v 0.645629 0.150000 0.653909
v 0.627389 0.150000 0.662594
v 0.448474 0.150000 0.663462
v 0.431972 0.150000 0.655645
v 0.417207 0.150000 0.639143
v 0.321670 0.150000 0.336898
v 0.145360 0.150000 0.357742
v -0.031819 0.150000 0.353400
vt 0.098762 0.747474
vt 0.125943 0.834173
vt 0.143087 0.814659
vt 0.106265 0.491994
vt 0.100226 0.518600
vt 0.141122 0.491300
vt 0.149967 0.502399
vt 0.146845 0.496156
vt 0.305543 0.816053
vt 0.292789 0.596099
vt 0.250346 0.589409
vt 0.263936 0.801556
vt 0.028093 0.805738
vt 0.038129 0.852572
vt 0.117788 0.853130
vt 0.169736 0.597594
vt 0.168177 0.801556
vt 0.207693 0.590803
vt 0.089145 0.933974
vt 0.099181 0.901079
vt 0.053601 0.887140
vt 0.053601 0.921987
vt 0.109216 0.555398
vt 0.315788 0.499086
vt 0.323315 0.491280
vt 0.319343 0.493789
vt 0.315788 0.499086
vt 0.319343 0.493789
vt 0.323315 0.491280
vt 0.100226 0.518600
vt 0.097299 0.504383
vt 0.106265 0.491994
vt 0.025166 0.755001
vt 0.149967 0.502399
vt 0.109216 0.555398
vt 0.141122 0.491300
vt 0.097299 0.504383
vt 0.101062 0.495462
vt 0.028093 0.805738
vt 0.125943 0.834173
vt 0.117788 0.853130
vt 0.038129 0.852572
vt 0.376422 0.507449
vt 0.113398 0.601954
vt 0.110471 0.680289
vt 0.366386 0.491559
vt 0.370776 0.494347
vt 0.375167 0.500480
vt 0.353214 0.600281
vt 0.376840 0.624256
vt 0.387921 0.644606
vt 0.400257 0.704543
vt 0.397748 0.673320
vt 0.398166 0.748310
vt 0.388339 0.779812
vt 0.335860 0.822186
vt 0.375376 0.802393
vt 0.359068 0.816889
vt 0.089145 0.933974
vt 0.053601 0.921987
vt 0.053601 0.887140
vt 0.099181 0.901079
vt 0.098762 0.747474
vt 0.143087 0.814659
vt 0.078900 0.719039
vt 0.146845 0.496156
vt 0.041056 0.706773
vt 0.032483 0.715415
vt 0.052556 0.703149
vt 0.063428 0.705658
vt 0.026002 0.729633
vt 0.305543 0.816053
vt 0.263936 0.801556
vt 0.250346 0.589409
vt 0.292789 0.596099
vt 0.056946 0.946240
vt 0.086426 0.953210
vt 0.101062 0.495462
vt 0.071582 0.971888
vt 0.076600 0.971888
vt 0.066355 0.967427
vt 0.081618 0.968821
vt 0.084545 0.963246
vt 0.025166 0.755001
vt 0.169736 0.597594
vt 0.207693 0.590803
vt 0.168177 0.801556
vt 0.376422 0.507449
vt 0.113398 0.601954
vt 0.110471 0.680289
vt 0.366386 0.491559
vt 0.370776 0.494347
vt 0.375167 0.500480
vt 0.353214 0.600281
vt 0.376840 0.624256
vt 0.387921 0.644606
vt 0.397748 0.673320
vt 0.400257 0.704543
vt 0.398166 0.748310
vt 0.388339 0.779812
vt 0.375376 0.802393
vt 0.335860 0.822186
vt 0.359068 0.816889
vt 0.078900 0.719039
vt 0.041056 0.706773
vt 0.052556 0.703149
vt 0.032483 0.715415
vt 0.063428 0.705658
vt 0.026002 0.729633
vt 0.086426 0.953210
vt 0.056946 0.946240
vt 0.071582 0.971888
vt 0.066355 0.967427
vt 0.076600 0.971888
vt 0.084545 0.963246
vt 0.081618 0.968821
vt 0.401662 0.018150
vt 0.486946 0.018150
vt 0.486946 0.455993
vt 0.401662 0.455993
vt 0.755526 0.020780
vt 0.804857 0.020780
vt 0.804857 0.458623
vt 0.755526 0.458623
vt 0.188451 0.018150
vt 0.198854 0.018150
vt 0.198854 0.455993
vt 0.188451 0.455993
vt 0.325766 0.018150
vt 0.325766 0.455993
vt 0.683620 0.020780
vt 0.683620 0.458623
vt 0.160626 0.020780
vt 0.147248 0.020780
vt 0.147248 0.458623
vt 0.160626 0.458623
vt 0.655191 0.020780
vt 0.655191 0.458623
vt 0.181947 0.020780
vt 0.181947 0.458623
vt 0.272481 0.018150
vt 0.238201 0.018150
vt 0.238201 0.455993
vt 0.272481 0.455993
vt 0.237131 0.020780
vt 0.237131 0.458623
vt 0.322649 0.018150
vt 0.322649 0.455993
vt 0.306947 0.020780
vt 0.306947 0.458623
vt 0.514120 0.018150
vt 0.514120 0.455993
vt 0.424422 0.020780
vt 0.424422 0.458623
vt 0.597314 0.018150
vt 0.597314 0.455993
vt 0.525175 0.020780
vt 0.525175 0.458623
vt 0.657933 0.018150
vt 0.657933 0.455993
vt 0.482533 0.020780
vt 0.482533 0.458623
vt 0.704338 0.018150
vt 0.704338 0.455993
vt 0.113201 0.018150
vt 0.144137 0.018150
vt 0.144137 0.455993
vt 0.113201 0.455993
vt 0.736946 0.018150
vt 0.736946 0.455993
vt 0.091462 0.018150
vt 0.091462 0.455993
vt 0.573670 0.020780
vt 0.607533 0.020780
vt 0.607533 0.458623
vt 0.573670 0.458623
vt 0.068468 0.018150
vt 0.068468 0.455993
vt 0.526429 0.020780
vt 0.526429 0.458623
vt 0.051327 0.018150
vt 0.051327 0.455993
vt 0.460794 0.020780
vt 0.460794 0.458623
vt 0.498419 0.020780
vt 0.477098 0.020780
vt 0.477098 0.458623
vt 0.498419 0.458623
vt 0.413971 0.020780
vt 0.413971 0.458623
vt 0.536462 0.020780
vt 0.536462 0.458623
vt 0.370911 0.020780
vt 0.370911 0.458623
vt 0.612549 0.020780
vt 0.612549 0.458623
vt 0.340392 0.020780
vt 0.340392 0.458623
vt 0.682784 0.020780
vt 0.682784 0.458623
vt 0.692632 0.018150
vt 0.739872 0.018150
vt 0.739872 0.455993
vt 0.692632 0.455993
vt 0.734623 0.020780
vt 0.734623 0.458623
vt 0.165225 0.020780
vt 0.304439 0.020780
vt 0.304439 0.458623
vt 0.165225 0.458623
vt 0.786880 0.020780
vt 0.786880 0.458623
vt 0.154774 0.020780
vt 0.154774 0.458623
vt 0.823252 0.020780
vt 0.823252 0.458623
vt 0.145576 0.020780
vt 0.145576 0.458623
vt 0.855024 0.020780
vt 0.855024 0.458623
vt 0.718970 0.018150
vt 0.727749 0.018150
vt 0.727749 0.455993
vt 0.718970 0.455993
vt 0.129505 0.018150
vt 0.119053 0.018150
vt 0.119053 0.455993
vt 0.129505 0.455993
vt 0.632849 0.018150
vt 0.632849 0.455993
vt 0.139538 0.018150
vt 0.139538 0.455993
vt 0.624906 0.018150
vt 0.624906 0.455993
vt 0.149572 0.018150
vt 0.149572 0.455993
vt 0.268551 0.018150
vt 0.268551 0.455993
vt 0.152683 0.020780
vt 0.144740 0.020780
vt 0.144740 0.458623
vt 0.152683 0.458623
vt 0.848753 0.020780
vt 0.857115 0.020780
vt 0.857115 0.458623
vt 0.848753 0.458623
vt 0.157651 0.020780
vt 0.300410 0.020780
vt 0.300410 0.458623
vt 0.157651 0.458623
vt 0.298168 0.020780
vt 0.298168 0.458623
vt 0.833703 0.020780
vt 0.833703 0.458623
vt 0.148289 0.020780
vt 0.148289 0.458623
vt 0.571813 0.018150
vt 0.571813 0.455993
vt 0.279994 0.018150
vt 0.279994 0.455993
vn 0.0000 -1.0000 -0.0000
vn 0.0000 1.0000 -0.0000
vn -0.0245 0.0000 0.9997
vn 0.9263 0.0000 -0.3768
vn -0.4472 0.0000 0.8944
vn -0.1330 0.0000 0.9911
vn 0.8881 0.0000 -0.4596
vn -0.8716 0.0000 0.4903
vn 0.8675 0.0000 -0.4975
vn -0.9643 0.0000 -0.2647
vn 0.6493 0.0000 -0.7606
vn -0.9508 0.0000 -0.3097
vn 0.3647 0.0000 -0.9311
vn -0.9929 0.0000 -0.1189
vn 0.0000 0.0000 -1.0000
vn -0.9988 0.0000 0.0498
vn -0.2528 0.0000 -0.9675
vn -0.9740 0.0000 0.2263
vn -0.1500 0.0000 -0.9887
vn 0.7318 0.0000 0.6816
vn 0.1687 0.0000 -0.9857
vn 0.5442 0.0000 0.8390
vn 0.5547 0.0000 -0.8320
vn 0.1705 0.0000 0.9854
vn 0.7941 0.0000 -0.6078
vn -0.2300 0.0000 0.9732
vn 0.9233 0.0000 -0.3840
vn -0.6031 0.0000 0.7977
vn 0.9980 0.0000 -0.0636
vn -0.8545 0.0000 0.5194
vn 0.9943 0.0000 0.1065
vn -0.9990 0.0000 0.0439
vn 0.9098 0.0000 0.4151
vn -0.9971 0.0000 -0.0767
vn 0.8092 0.0000 0.5875
vn -0.9615 0.0000 -0.2747
vn 0.6056 0.0000 0.7958
vn -0.8587 0.0000 -0.5125
vn 0.9487 0.0000 -0.3162
vn -1.0000 0.0000 0.0000
vn 0.9724 0.0000 0.2334
vn -0.9835 0.0000 -0.1809
vn 0.7234 0.0000 0.6905
vn -0.8605 0.0000 -0.5095
vn 0.4299 0.0000 0.9029
vn -0.5390 0.0000 -0.8423
vn 0.0049 0.0000 1.0000
vn -0.4281 0.0000 0.9037
vn 0.4166 0.0000 -0.9091
vn -0.0149 0.0000 0.9999
vn -0.7452 0.0000 0.6668
vn 0.8192 0.0000 -0.5735
vn 0.9637 0.0000 0.2669
vn -0.9535 0.0000 0.3014
vn 0.9701 0.0000 -0.2425
vn 0.8321 0.0000 0.5547
vn 0.1174 0.0000 0.9931
vn 0.9827 0.0000 -0.1851
vn 0.5369 0.0000 0.8437
usemtl wood_normal
s off
f 12/1/1 34/2/1 35/3/1
f 5/4/1 8/5/1 3/6/1
f 3/6/1 2/7/1 4/8/1
f 38/9/1 56/10/1 57/11/1 37/12/1
f 20/13/1 21/14/1 33/15/1 34/2/1
f 1/16/1 36/17/1 58/18/1
f 31/19/1 32/20/1 22/21/1 23/22/1
f 2/7/1 3/6/1 8/5/1 9/23/1
f 55/24/1 53/25/1 54/26/1
f 113/27/2 112/28/2 111/29/2
f 66/30/2 65/31/2 60/32/2
f 12/1/1 19/33/1 20/13/1 34/2/1
f 62/34/2 67/35/2 66/30/2 59/36/2
f 7/37/1 5/4/1 6/38/1
f 8/5/1 5/4/1 7/37/1
f 78/39/2 92/40/2 91/41/2 79/42/2
f 55/24/1 49/43/1 53/25/1
f 10/44/1 11/45/1 1/16/1
f 11/45/1 36/17/1 1/16/1
f 53/25/1 49/43/1 52/46/1
f 52/46/1 49/43/1 51/47/1
f 51/47/1 49/43/1 50/48/1
f 48/49/1 56/10/1 47/50/1
f 47/50/1 56/10/1 46/51/1
f 46/51/1 44/52/1 45/53/1
f 44/52/1 38/9/1 43/54/1
f 43/54/1 38/9/1 42/55/1
f 42/55/1 39/56/1 41/57/1
f 41/57/1 39/56/1 40/58/1
f 39/56/1 42/55/1 38/9/1
f 89/59/2 81/60/2 80/61/2 90/62/2
f 70/63/2 93/64/2 92/40/2
f 12/1/1 36/17/1 11/45/1
f 60/32/2 59/36/2 66/30/2
f 44/52/1 46/51/1 56/10/1 38/9/1
f 13/65/1 19/33/1 12/1/1
f 59/36/2 63/66/2 62/34/2
f 16/67/1 17/68/1 15/69/1
f 15/69/1 17/68/1 14/70/1
f 18/71/1 14/70/1 17/68/1
f 10/44/1 1/16/1 2/7/1 9/23/1
f 22/21/1 33/15/1 21/14/1
f 19/33/1 13/65/1 14/70/1 18/71/1
f 96/72/2 95/73/2 115/74/2 114/75/2
f 55/24/1 56/10/1 48/49/1 49/43/1
f 31/19/1 23/22/1 24/76/1 30/77/1
f 65/31/2 64/78/2 60/32/2
f 26/79/1 27/80/1 25/81/1
f 25/81/1 30/77/1 24/76/1
f 27/80/1 28/82/1 29/83/1
f 30/77/1 25/81/1 29/83/1
f 25/81/1 27/80/1 29/83/1
f 70/63/2 92/40/2 78/39/2 77/84/2
f 61/85/2 116/86/2 94/87/2
f 33/15/1 22/21/1 32/20/1
f 12/1/1 35/3/1 36/17/1
f 37/12/1 57/11/1 58/18/1 36/17/1
f 113/27/2 111/29/2 107/88/2
f 68/89/2 61/85/2 69/90/2
f 69/90/2 61/85/2 94/87/2
f 111/29/2 110/91/2 107/88/2
f 110/91/2 109/92/2 107/88/2
f 109/92/2 108/93/2 107/88/2
f 106/94/2 105/95/2 114/75/2
f 105/95/2 104/96/2 114/75/2
f 104/96/2 103/97/2 102/98/2
f 102/98/2 101/99/2 96/72/2
f 101/99/2 100/100/2 96/72/2
f 100/100/2 99/101/2 97/102/2
f 99/101/2 98/103/2 97/102/2
f 97/102/2 96/72/2 100/100/2
f 70/63/2 69/90/2 94/87/2
f 102/98/2 96/72/2 114/75/2 104/96/2
f 71/104/2 70/63/2 77/84/2
f 74/105/2 73/106/2 75/107/2
f 73/106/2 72/108/2 75/107/2
f 76/109/2 75/107/2 72/108/2
f 68/89/2 67/35/2 62/34/2 61/85/2
f 80/61/2 79/42/2 91/41/2
f 77/84/2 76/109/2 72/108/2 71/104/2
f 113/27/2 107/88/2 106/94/2 114/75/2
f 89/59/2 88/110/2 82/111/2 81/60/2
f 84/112/2 83/113/2 85/114/2
f 83/113/2 82/111/2 88/110/2
f 85/114/2 87/115/2 86/116/2
f 88/110/2 87/115/2 83/113/2
f 83/113/2 87/115/2 85/114/2
f 91/41/2 90/62/2 80/61/2
f 70/63/2 94/87/2 93/64/2
f 95/73/2 94/87/2 116/86/2 115/74/2
f 58/117/3 57/118/3 115/119/3 116/120/3
f 32/121/4 31/122/4 89/123/4 90/124/4
f 6/125/5 5/126/5 60/127/5 64/128/5
f 1/129/6 58/117/6 116/120/6 61/130/6
f 33/131/7 32/121/7 90/124/7 91/132/7
f 7/133/8 6/134/8 64/135/8 65/136/8
f 34/137/9 33/131/9 91/132/9 92/138/9
f 8/139/10 7/133/10 65/136/10 66/140/10
f 35/141/11 34/142/11 92/143/11 93/144/11
f 9/145/12 8/139/12 66/140/12 67/146/12
f 36/147/13 35/141/13 93/144/13 94/148/13
f 10/149/14 9/145/14 67/146/14 68/150/14
f 37/151/15 36/147/15 94/148/15 95/152/15
f 11/153/16 10/149/16 68/150/16 69/154/16
f 38/155/17 37/151/17 95/152/17 96/156/17
f 12/157/18 11/153/18 69/154/18 70/158/18
f 39/159/19 38/155/19 96/156/19 97/160/19
f 13/161/20 12/157/20 70/158/20 71/162/20
f 40/163/21 39/159/21 97/160/21 98/164/21
f 14/165/22 13/166/22 71/167/22 72/168/22
f 41/169/23 40/163/23 98/164/23 99/170/23
f 15/171/24 14/165/24 72/168/24 73/172/24
f 42/173/25 41/174/25 99/175/25 100/176/25
f 16/177/26 15/171/26 73/172/26 74/178/26
f 43/179/27 42/173/27 100/176/27 101/180/27
f 17/181/28 16/177/28 74/178/28 75/182/28
f 44/183/29 43/179/29 101/180/29 102/184/29
f 18/185/30 17/186/30 75/187/30 76/188/30
f 45/189/31 44/183/31 102/184/31 103/190/31
f 19/191/32 18/185/32 76/188/32 77/192/32
f 46/193/33 45/189/33 103/190/33 104/194/33
f 20/195/34 19/191/34 77/192/34 78/196/34
f 47/197/35 46/193/35 104/194/35 105/198/35
f 21/199/36 20/195/36 78/196/36 79/200/36
f 48/201/37 47/202/37 105/203/37 106/204/37
f 22/205/38 21/199/38 79/200/38 80/206/38
f 49/207/39 48/208/39 106/209/39 107/210/39
f 23/211/40 22/205/40 80/206/40 81/212/40
f 50/213/41 49/207/41 107/210/41 108/214/41
f 24/215/42 23/211/42 81/212/42 82/216/42
f 51/217/43 50/213/43 108/214/43 109/218/43
f 25/219/44 24/215/44 82/216/44 83/220/44
f 52/221/45 51/222/45 109/223/45 110/224/45
f 26/225/46 25/226/46 83/227/46 84/228/46
f 53/229/47 52/221/47 110/224/47 111/230/47
f 27/231/15 26/225/15 84/228/15 85/232/15
f 54/233/48 53/229/48 111/230/48 112/234/48
f 28/235/49 27/231/49 85/232/49 86/236/49
f 5/126/50 3/237/50 59/238/50 60/127/50
f 55/239/51 54/240/51 112/241/51 113/242/51
f 29/243/52 28/244/52 86/245/52 87/246/52
f 2/247/53 1/248/53 61/249/53 62/250/53
f 56/251/54 55/239/54 113/242/54 114/252/54
f 30/253/55 29/243/55 87/246/55 88/254/55
f 4/255/56 2/247/56 62/250/56 63/256/56
f 57/118/57 56/257/57 114/258/57 115/119/57
f 31/122/58 30/253/58 88/254/58 89/123/58
f 3/237/59 4/259/59 63/260/59 59/238/59
