# Blender v2.82 (sub 7) OBJ File: 'player_tokens.blend'
# www.blender.org
mtllib raft.mtl
o raft_Plane.004
v -0.622195 -0.150000 0.566731
v -0.899845 -0.150000 0.526209
v -0.982389 -0.150000 0.373126
v -0.965880 -0.150000 0.463175
v -0.949371 -0.150000 0.298086
v -0.868328 -0.150000 0.265068
v -0.853320 -0.150000 0.235052
v -0.868328 -0.150000 0.163013
v -0.853320 -0.150000 0.056456
v -0.866827 -0.150000 0.017435
v -0.919355 -0.150000 -0.008079
v -0.958376 -0.150000 -0.074115
v -0.962879 -0.150000 -0.200183
v -0.932863 -0.150000 -0.266218
v -0.878833 -0.150000 -0.297735
v -0.920856 -0.150000 -0.372776
v -0.928360 -0.150000 -0.464325
v -0.889339 -0.150000 -0.539366
v -0.830808 -0.150000 -0.579888
v -0.091659 -0.150000 -0.569882
v 0.715026 -0.150000 -0.573634
v 0.797571 -0.150000 -0.549871
v 0.860104 -0.150000 -0.501095
v 0.886368 -0.150000 -0.427305
v 0.887619 -0.150000 -0.359769
v 0.863856 -0.150000 -0.303488
v 0.942649 -0.150000 -0.249709
v 0.966412 -0.150000 -0.178421
v 0.953905 -0.150000 -0.102130
v 0.915134 -0.150000 -0.048351
v 0.862606 -0.150000 -0.018335
v 0.905129 -0.150000 0.047951
v 0.922638 -0.150000 0.122992
v 0.911382 -0.150000 0.191779
v 0.891371 -0.150000 0.225547
v 0.897625 -0.150000 0.261816
v 0.947652 -0.150000 0.306841
v 0.978918 -0.150000 0.398140
v 0.966412 -0.150000 0.478183
v 0.920137 -0.150000 0.544469
v 0.830088 -0.150000 0.568232
v 0.676255 -0.150000 0.574485
v 0.217258 -0.150000 0.554474
v -0.214225 -0.150000 0.565730
v -0.982389 0.150000 0.373126
v -0.949371 0.150000 0.298086
v -0.622195 0.150000 0.566731
v -0.899845 0.150000 0.526209
v -0.965880 0.150000 0.463175
v -0.868328 0.150000 0.265068
v -0.853320 0.150000 0.235052
v -0.868328 0.150000 0.163013
v -0.853320 0.150000 0.056456
v -0.866827 0.150000 0.017435
v -0.919355 0.150000 -0.008079
v -0.958376 0.150000 -0.074115
v -0.962879 0.150000 -0.200183
v -0.932863 0.150000 -0.266218
v -0.878833 0.150000 -0.297735
v -0.920856 0.150000 -0.372776
v -0.928360 0.150000 -0.464325
v -0.889339 0.150000 -0.539366
v -0.830808 0.150000 -0.579888
v -0.091659 0.150000 -0.569882
v 0.715026 0.150000 -0.573634
v 0.797571 0.150000 -0.549871
v 0.860104 0.150000 -0.501095
v 0.886368 0.150000 -0.427305
v 0.887619 0.150000 -0.359769
v 0.863856 0.150000 -0.303488
v 0.942649 0.150000 -0.249709
v 0.966412 0.150000 -0.178421
v 0.953905 0.150000 -0.102130
v 0.915134 0.150000 -0.048351
v 0.862606 0.150000 -0.018335
v 0.905129 0.150000 0.047951
v 0.922638 0.150000 0.122992
v 0.911382 0.150000 0.191779
v 0.891371 0.150000 0.225547
v 0.897625 0.150000 0.261816
v 0.947652 0.150000 0.306841
v 0.978918 0.150000 0.398140
v 0.966412 0.150000 0.478183
v 0.920137 0.150000 0.544469
v 0.830088 0.150000 0.568232
v 0.676255 0.150000 0.574485
v 0.217258 0.150000 0.554474
v -0.214225 0.150000 0.565730
vt 0.288863 0.220477
vt 0.361162 0.244758
vt 0.324934 0.210931
vt 0.121606 0.930628
vt 0.130873 0.898850
vt 0.099836 0.943961
vt 0.073448 0.938093
vt 0.054720 0.912762
vt 0.041577 0.804851
vt 0.139572 0.892815
vt 0.039955 0.645910
vt 0.371183 0.591053
vt 0.041218 0.477745
vt 0.191755 0.891697
vt 0.134160 0.213069
vt 0.033217 0.299056
vt 0.123533 0.210860
vt 0.034322 0.239088
vt 0.059992 0.185416
vt 0.040842 0.203859
vt 0.083320 0.180043
vt 0.110143 0.191652
vt 0.160691 0.898211
vt 0.163978 0.200247
vt 0.143932 0.205062
vt 0.205552 0.222749
vt 0.185985 0.206598
vt 0.229607 0.186656
vt 0.214076 0.202098
vt 0.203219 0.896715
vt 0.230398 0.931807
vt 0.210921 0.917018
vt 0.286407 0.920665
vt 0.295362 0.899419
vt 0.267254 0.932772
vt 0.344269 0.917671
vt 0.366011 0.902000
vt 0.317485 0.915321
vt 0.377576 0.878944
vt 0.251839 0.181307
vt 0.272780 0.190118
vt 0.305195 0.210867
vt 0.368493 0.276766
vt 0.346617 0.220702
vt 0.288863 0.220477
vt 0.324934 0.210931
vt 0.361162 0.244758
vt 0.121606 0.930628
vt 0.099836 0.943961
vt 0.130873 0.898850
vt 0.073448 0.938093
vt 0.054720 0.912762
vt 0.041577 0.804851
vt 0.139572 0.892815
vt 0.039955 0.645910
vt 0.041218 0.477745
vt 0.371183 0.591053
vt 0.191755 0.891697
vt 0.033217 0.299056
vt 0.134160 0.213069
vt 0.034322 0.239088
vt 0.123533 0.210860
vt 0.040842 0.203859
vt 0.059992 0.185416
vt 0.083320 0.180043
vt 0.110143 0.191652
vt 0.160691 0.898211
vt 0.143932 0.205062
vt 0.163978 0.200247
vt 0.205552 0.222749
vt 0.185985 0.206598
vt 0.214076 0.202098
vt 0.229607 0.186656
vt 0.203219 0.896715
vt 0.230398 0.931807
vt 0.210921 0.917018
vt 0.286407 0.920665
vt 0.267254 0.932772
vt 0.295362 0.899419
vt 0.344269 0.917671
vt 0.317485 0.915321
vt 0.366011 0.902000
vt 0.377576 0.878944
vt 0.251839 0.181307
vt 0.272780 0.190118
vt 0.305195 0.210867
vt 0.368493 0.276766
vt 0.346617 0.220702
vt 0.266068 0.336218
vt 0.286154 0.336218
vt 0.286154 0.571937
vt 0.266068 0.571937
vt 0.492756 0.031840
vt 0.527669 0.031840
vt 0.527669 0.267559
vt 0.492756 0.267559
vt 0.782579 0.031840
vt 0.808405 0.031840
vt 0.808405 0.267559
vt 0.782579 0.267559
vt 0.673346 0.031840
vt 0.648094 0.031840
vt 0.648094 0.267559
vt 0.673346 0.267559
vt 0.462148 0.031840
vt 0.462148 0.267559
vt 0.761058 0.031840
vt 0.761058 0.267559
vt 0.721554 0.031840
vt 0.721554 0.267559
vt 0.436801 0.031840
vt 0.436801 0.267559
vt 0.978095 0.336218
vt 0.947965 0.336218
vt 0.947965 0.571937
vt 0.978095 0.571937
vt 0.746806 0.031840
vt 0.746806 0.267559
vt 0.935051 0.336218
vt 0.969486 0.336218
vt 0.969486 0.571937
vt 0.935051 0.571937
vt 0.713232 0.031840
vt 0.740493 0.031840
vt 0.740493 0.267559
vt 0.713232 0.267559
vt 0.281564 0.336218
vt 0.260903 0.336218
vt 0.260903 0.571937
vt 0.281564 0.571937
vt 0.876227 0.336218
vt 0.876227 0.571937
vt 0.531017 0.031840
vt 0.502322 0.031840
vt 0.502322 0.267559
vt 0.531017 0.267559
vt 0.684059 0.031840
vt 0.684059 0.267559
vt 0.787553 0.031840
vt 0.758858 0.031840
vt 0.758858 0.267559
vt 0.787553 0.267559
vt 0.700706 0.336218
vt 0.700706 0.571937
vt 0.273529 0.336218
vt 0.379701 0.336218
vt 0.379701 0.571937
vt 0.273529 0.571937
vt 0.663494 0.031840
vt 0.663494 0.267559
vt 0.822561 0.031840
vt 0.822561 0.267559
vt 0.535708 0.336218
vt 0.535708 0.571937
vt 0.248277 0.336218
vt 0.248277 0.571937
vt 0.947486 0.336218
vt 0.967573 0.336218
vt 0.967573 0.571937
vt 0.947486 0.571937
vt 0.851257 0.031840
vt 0.851257 0.267559
vt 0.467887 0.031840
vt 0.467887 0.267559
vt 0.626668 0.031840
vt 0.652015 0.031840
vt 0.652015 0.267559
vt 0.626668 0.267559
vt 0.299929 0.336218
vt 0.277546 0.336218
vt 0.277546 0.571937
vt 0.299929 0.571937
vt 0.285581 0.336218
vt 0.254590 0.336218
vt 0.254590 0.571937
vt 0.285581 0.571937
vt 0.597973 0.031840
vt 0.597973 0.267559
vt 0.582578 0.336218
vt 0.582578 0.571937
vt 0.555121 0.031840
vt 0.543643 0.031840
vt 0.543643 0.267559
vt 0.555121 0.267559
vt 0.571669 0.031840
vt 0.571669 0.267559
vt 0.891052 0.336218
vt 0.891052 0.571937
vt 0.582668 0.031840
vt 0.582668 0.267559
vt 0.558756 0.031840
vt 0.558756 0.267559
vt 0.922617 0.336218
vt 0.922617 0.571937
vt 0.623416 0.031840
vt 0.623416 0.267559
vt 0.544886 0.031840
vt 0.544886 0.267559
vt 0.946530 0.336218
vt 0.946530 0.571937
vt 0.638337 0.031840
vt 0.638337 0.267559
vt 0.980008 0.336218
vt 0.960877 0.336218
vt 0.960877 0.571937
vt 0.980008 0.571937
vt 0.836622 0.031840
vt 0.836622 0.267559
vn 0.0000 -1.0000 0.0000
vn 0.0000 1.0000 0.0000
vn -0.4369 0.0000 0.8995
vn 0.9461 0.0000 -0.3240
vn 0.9998 0.0000 -0.0185
vn -0.8609 0.0000 0.5087
vn 0.9880 0.0000 0.1544
vn 0.9212 0.0000 0.3890
vn -0.9994 0.0000 0.0357
vn 0.8200 0.0000 0.5724
vn 0.5637 0.0000 -0.8259
vn -0.9104 0.0000 -0.4138
vn 0.2552 0.0000 0.9669
vn 0.9487 0.0000 -0.3162
vn -0.5039 0.0000 -0.8638
vn 0.0406 0.0000 0.9992
vn -0.9153 0.0000 -0.4027
vn 0.9868 0.0000 0.1618
vn -0.8725 0.0000 0.4886
vn -0.0436 0.0000 0.9991
vn -0.1444 0.0000 0.9895
vn 0.8112 0.0000 0.5848
vn -0.9967 0.0000 0.0817
vn 0.0261 0.0000 0.9997
vn -0.6905 0.0000 0.7234
vn 0.4961 0.0000 0.8682
vn -0.8872 0.0000 -0.4614
vn 0.0025 0.0000 1.0000
vn -0.9836 0.0000 0.1803
vn 0.8417 0.0000 -0.5400
vn -0.5692 0.0000 -0.8222
vn -0.3773 0.0000 -0.9261
vn 0.9738 0.0000 -0.2272
vn 0.0135 0.0000 -0.9999
vn -0.8944 0.0000 -0.4472
vn 0.9869 0.0000 0.1615
vn -0.0047 0.0000 -1.0000
vn -0.9790 0.0000 0.2040
vn 0.8603 0.0000 0.5098
vn 0.2766 0.0000 -0.9610
vn -0.9902 0.0000 -0.1395
vn 0.9855 0.0000 -0.1699
vn 0.6150 0.0000 -0.7885
vn -0.9450 0.0000 0.3271
vn 0.6690 0.0000 -0.7433
vn 0.9421 0.0000 -0.3353
usemtl wood_normal
s off
f 26/1/1 22/2/1 24/3/1
f 5/4/1 6/5/1 3/6/1
f 3/6/1 6/5/1 4/7/1
f 4/7/1 6/5/1 2/8/1
f 2/8/1 6/5/1 1/9/1
f 6/5/1 7/10/1 1/9/1
f 1/9/1 7/10/1 44/11/1
f 44/11/1 20/12/1 43/13/1
f 7/10/1 9/14/1 44/11/1
f 43/13/1 35/15/1 42/16/1
f 42/16/1 36/17/1 41/18/1
f 41/18/1 39/19/1 40/20/1
f 39/19/1 41/18/1 38/21/1
f 38/21/1 36/17/1 37/22/1
f 41/18/1 36/17/1 38/21/1
f 42/16/1 35/15/1 36/17/1
f 9/14/1 7/10/1 8/23/1
f 9/14/1 20/12/1 44/11/1
f 35/15/1 33/24/1 34/25/1
f 43/13/1 31/26/1 35/15/1
f 20/12/1 31/26/1 43/13/1
f 35/15/1 32/27/1 33/24/1
f 31/26/1 29/28/1 30/29/1
f 35/15/1 31/26/1 32/27/1
f 10/30/1 20/12/1 9/14/1
f 12/31/1 10/30/1 11/32/1
f 14/33/1 15/34/1 13/35/1
f 13/35/1 10/30/1 12/31/1
f 15/34/1 10/30/1 13/35/1
f 17/36/1 18/37/1 16/38/1
f 16/38/1 19/39/1 15/34/1
f 18/37/1 19/39/1 16/38/1
f 31/26/1 26/1/1 29/28/1
f 29/28/1 26/1/1 28/40/1
f 10/30/1 15/34/1 20/12/1
f 28/40/1 26/1/1 27/41/1
f 26/1/1 24/3/1 25/42/1
f 20/12/1 15/34/1 19/39/1
f 22/2/1 26/1/1 21/43/1
f 21/43/1 26/1/1 20/12/1
f 24/3/1 22/2/1 23/44/1
f 31/26/1 20/12/1 26/1/1
f 70/45/2 68/46/2 66/47/2
f 46/48/2 45/49/2 50/50/2
f 45/49/2 49/51/2 50/50/2
f 49/51/2 48/52/2 50/50/2
f 48/52/2 47/53/2 50/50/2
f 50/50/2 47/53/2 51/54/2
f 47/53/2 88/55/2 51/54/2
f 88/55/2 87/56/2 64/57/2
f 51/54/2 88/55/2 53/58/2
f 87/56/2 86/59/2 79/60/2
f 86/59/2 85/61/2 80/62/2
f 85/61/2 84/63/2 83/64/2
f 83/64/2 82/65/2 85/61/2
f 82/65/2 81/66/2 80/62/2
f 85/61/2 82/65/2 80/62/2
f 86/59/2 80/62/2 79/60/2
f 53/58/2 52/67/2 51/54/2
f 53/58/2 88/55/2 64/57/2
f 79/60/2 78/68/2 77/69/2
f 87/56/2 79/60/2 75/70/2
f 64/57/2 87/56/2 75/70/2
f 79/60/2 77/69/2 76/71/2
f 75/70/2 74/72/2 73/73/2
f 79/60/2 76/71/2 75/70/2
f 54/74/2 53/58/2 64/57/2
f 56/75/2 55/76/2 54/74/2
f 58/77/2 57/78/2 59/79/2
f 57/78/2 56/75/2 54/74/2
f 59/79/2 57/78/2 54/74/2
f 61/80/2 60/81/2 62/82/2
f 60/81/2 59/79/2 63/83/2
f 62/82/2 60/81/2 63/83/2
f 75/70/2 73/73/2 70/45/2
f 73/73/2 72/84/2 70/45/2
f 54/74/2 64/57/2 59/79/2
f 72/84/2 71/85/2 70/45/2
f 70/45/2 69/86/2 68/46/2
f 64/57/2 63/83/2 59/79/2
f 66/47/2 65/87/2 70/45/2
f 65/87/2 64/57/2 70/45/2
f 68/46/2 67/88/2 66/47/2
f 75/70/2 70/45/2 64/57/2
f 11/89/3 10/90/3 54/91/3 55/92/3
f 38/93/4 37/94/4 81/95/4 82/96/4
f 25/97/5 24/98/5 68/99/5 69/100/5
f 12/101/6 11/102/6 55/103/6 56/104/6
f 39/105/7 38/93/7 82/96/7 83/106/7
f 26/107/8 25/97/8 69/100/8 70/108/8
f 13/109/9 12/101/9 56/104/9 57/110/9
f 40/111/10 39/105/10 83/106/10 84/112/10
f 27/113/11 26/114/11 70/115/11 71/116/11
f 14/117/12 13/109/12 57/110/12 58/118/12
f 41/119/13 40/120/13 84/121/13 85/122/13
f 28/123/14 27/124/14 71/125/14 72/126/14
f 15/127/15 14/128/15 58/129/15 59/130/15
f 42/131/16 41/119/16 85/122/16 86/132/16
f 5/133/17 3/134/17 45/135/17 46/136/17
f 29/137/18 28/123/18 72/126/18 73/138/18
f 16/139/19 15/140/19 59/141/19 60/142/19
f 43/143/20 42/131/20 86/132/20 87/144/20
f 2/145/21 1/146/21 47/147/21 48/148/21
f 30/149/22 29/137/22 73/138/22 74/150/22
f 17/151/23 16/139/23 60/142/23 61/152/23
f 44/153/24 43/143/24 87/144/24 88/154/24
f 4/155/25 2/145/25 48/148/25 49/156/25
f 31/157/26 30/158/26 74/159/26 75/160/26
f 18/161/27 17/151/27 61/152/27 62/162/27
f 1/146/28 44/153/28 88/154/28 47/147/28
f 3/134/29 4/163/29 49/164/29 45/135/29
f 32/165/30 31/166/30 75/167/30 76/168/30
f 19/169/31 18/170/31 62/171/31 63/172/31
f 6/173/32 5/174/32 46/175/32 50/176/32
f 33/177/33 32/165/33 76/168/33 77/178/33
f 20/179/34 19/169/34 63/172/34 64/180/34
f 7/181/35 6/182/35 50/183/35 51/184/35
f 34/185/36 33/177/36 77/178/36 78/186/36
f 21/187/37 20/179/37 64/180/37 65/188/37
f 8/189/38 7/181/38 51/184/38 52/190/38
f 35/191/39 34/185/39 78/186/39 79/192/39
f 22/193/40 21/187/40 65/188/40 66/194/40
f 9/195/41 8/189/41 52/190/41 53/196/41
f 36/197/42 35/191/42 79/192/42 80/198/42
f 23/199/43 22/193/43 66/194/43 67/200/43
f 10/201/44 9/195/44 53/196/44 54/202/44
f 37/203/45 36/204/45 80/205/45 81/206/45
f 24/98/46 23/207/46 67/208/46 68/99/46
