# Blender v2.82 (sub 7) OBJ File: 'player_tokens.blend'
# www.blender.org
mtllib rowboat.mtl
o rowboat_Plane.005
v 0.030250 -0.150000 0.493689
v -0.231683 -0.150000 0.470349
v -0.880033 -0.150000 0.283624
v -0.558452 -0.150000 0.397733
v -0.897751 -0.150000 0.262779
v -0.908173 -0.150000 0.244019
v -0.910258 -0.150000 -0.231237
v -0.902962 -0.150000 -0.255209
v -0.884202 -0.150000 -0.272926
v -0.589772 -0.150000 -0.396257
v -0.265813 -0.150000 -0.477898
v 0.076372 -0.150000 -0.503112
v 0.333911 -0.150000 -0.463490
v 0.551829 -0.150000 -0.387850
v 0.771547 -0.150000 -0.259981
v 1.050698 -0.150000 -0.027655
v 1.061120 -0.150000 0.001875
v 1.050698 -0.150000 0.032273
v 0.789272 -0.150000 0.277197
v 0.588643 -0.150000 0.390105
v 0.246444 -0.150000 0.483905
v 0.010652 -0.150000 0.000979
v -0.880033 0.150000 0.283624
v -0.897751 0.150000 0.262779
v 0.030250 0.150000 0.493689
v -0.231683 0.150000 0.470349
v -0.558452 0.150000 0.397733
v -0.908173 0.150000 0.244019
v -0.910258 0.150000 -0.231237
v -0.902962 0.150000 -0.255209
v -0.884202 0.150000 -0.272926
v -0.589772 0.150000 -0.396257
v -0.265813 0.150000 -0.477898
v 0.076372 0.150000 -0.503112
v 0.333911 0.150000 -0.463490
v 0.551829 0.150000 -0.387850
v 0.771547 0.150000 -0.259981
v 1.050698 0.150000 -0.027655
v 1.061120 0.150000 0.001875
v 1.050698 0.150000 0.032273
v 0.789272 0.150000 0.277197
v 0.588643 0.150000 0.390105
v 0.246444 0.150000 0.483905
v 0.010652 0.150000 0.000979
vt 0.274353 0.234872
vt 0.305733 0.351997
vt 0.197601 0.559737
vt 0.274353 0.234872
vt 0.197601 0.559737
vt 0.305733 0.351997
vt 0.325772 0.471045
vt 0.332304 0.566500
vt 0.329754 0.645309
vt 0.304310 0.770109
vt 0.273560 0.843324
vt 0.206757 0.938799
vt 0.198453 0.942621
vt 0.190375 0.938845
vt 0.126703 0.837277
vt 0.091621 0.757290
vt 0.070817 0.677919
vt 0.059837 0.584079
vt 0.066532 0.459336
vt 0.088663 0.341193
vt 0.122207 0.233782
vt 0.127040 0.226930
vt 0.133589 0.224252
vt 0.263510 0.224646
vt 0.268644 0.228430
vt 0.325772 0.471045
vt 0.332304 0.566500
vt 0.329754 0.645309
vt 0.304310 0.770109
vt 0.273560 0.843324
vt 0.206757 0.938799
vt 0.198453 0.942621
vt 0.190375 0.938845
vt 0.126703 0.837277
vt 0.091621 0.757290
vt 0.070817 0.677919
vt 0.059837 0.584079
vt 0.066532 0.459336
vt 0.088663 0.341193
vt 0.122207 0.233782
vt 0.127040 0.226930
vt 0.133589 0.224252
vt 0.263510 0.224646
vt 0.268644 0.228430
vt 0.495022 0.029563
vt 0.594674 0.029563
vt 0.594674 0.268114
vt 0.495022 0.268114
vt 0.598815 0.365542
vt 0.610380 0.365542
vt 0.610380 0.604093
vt 0.598815 0.604093
vt 0.482038 0.029563
vt 0.358789 0.029563
vt 0.358789 0.268114
vt 0.482038 0.268114
vt 0.370705 0.029563
vt 0.370705 0.268114
vt 0.883439 0.029563
vt 0.982897 0.029563
vt 0.982897 0.268114
vt 0.883439 0.268114
vt 0.612220 0.029563
vt 0.612220 0.268114
vt 0.248361 0.029563
vt 0.248361 0.268114
vt 0.807111 0.029563
vt 0.807111 0.268114
vt 0.710199 0.029563
vt 0.710199 0.268114
vt 0.518257 0.365542
vt 0.511120 0.365542
vt 0.511120 0.604093
vt 0.518257 0.604093
vt 0.676924 0.029563
vt 0.676924 0.268114
vt 0.793105 0.029563
vt 0.793105 0.268114
vt 0.699066 0.365542
vt 0.699066 0.604093
vt 0.876696 0.029563
vt 0.876696 0.268114
vt 0.708186 0.365542
vt 0.708186 0.604093
vt 0.982897 0.029563
vt 0.982897 0.268114
vt 0.246775 0.029563
vt 0.239638 0.029563
vt 0.239638 0.268114
vt 0.246775 0.268114
vt 0.503190 0.365542
vt 0.503190 0.604093
vt 0.621615 0.365542
vt 0.621615 0.604093
vn 0.0000 1.0000 0.0000
vn 0.0000 -1.0000 -0.0000
vn -0.0888 0.0000 0.9961
vn 0.9459 0.0000 0.3243
vn -0.2444 0.0000 -0.9697
vn -0.2169 0.0000 0.9762
vn 0.6837 0.0000 0.7298
vn -0.0735 0.0000 -0.9973
vn -0.3344 0.0000 0.9424
vn 0.4904 0.0000 0.8715
vn 0.1521 0.0000 -0.9884
vn -0.8742 0.0000 0.4856
vn 0.2644 0.0000 0.9644
vn 0.3279 0.0000 -0.9447
vn -1.0000 0.0000 0.0044
vn 0.0452 0.0000 0.9990
vn 0.5030 0.0000 -0.8643
vn -0.9567 0.0000 -0.2912
vn 0.6397 0.0000 -0.7686
vn -0.6866 0.0000 -0.7270
vn -0.7619 0.0000 0.6476
vn 0.9430 0.0000 -0.3328
vn -0.3864 0.0000 -0.9224
usemtl wood_normal
s off
f 23/1/1 27/2/1 44/3/1
f 3/4/2 22/5/2 4/6/2
f 4/6/2 22/5/2 2/7/2
f 2/7/2 22/5/2 1/8/2
f 1/8/2 22/5/2 21/9/2
f 21/9/2 22/5/2 20/10/2
f 20/10/2 22/5/2 19/11/2
f 19/11/2 22/5/2 18/12/2
f 18/12/2 22/5/2 17/13/2
f 17/13/2 22/5/2 16/14/2
f 16/14/2 22/5/2 15/15/2
f 15/15/2 22/5/2 14/16/2
f 14/16/2 22/5/2 13/17/2
f 13/17/2 22/5/2 12/18/2
f 12/18/2 22/5/2 11/19/2
f 11/19/2 22/5/2 10/20/2
f 10/20/2 22/5/2 9/21/2
f 9/21/2 22/5/2 8/22/2
f 8/22/2 22/5/2 7/23/2
f 7/23/2 22/5/2 6/24/2
f 6/24/2 22/5/2 5/25/2
f 5/25/2 22/5/2 3/4/2
f 27/2/1 26/26/1 44/3/1
f 26/26/1 25/27/1 44/3/1
f 25/27/1 43/28/1 44/3/1
f 43/28/1 42/29/1 44/3/1
f 42/29/1 41/30/1 44/3/1
f 41/30/1 40/31/1 44/3/1
f 40/31/1 39/32/1 44/3/1
f 39/32/1 38/33/1 44/3/1
f 38/33/1 37/34/1 44/3/1
f 37/34/1 36/35/1 44/3/1
f 36/35/1 35/36/1 44/3/1
f 35/36/1 34/37/1 44/3/1
f 34/37/1 33/38/1 44/3/1
f 33/38/1 32/39/1 44/3/1
f 32/39/1 31/40/1 44/3/1
f 31/40/1 30/41/1 44/3/1
f 30/41/1 29/42/1 44/3/1
f 29/42/1 28/43/1 44/3/1
f 28/43/1 24/44/1 44/3/1
f 24/44/1 23/1/1 44/3/1
f 2/45/3 1/46/3 25/47/3 26/48/3
f 18/49/4 17/50/4 39/51/4 40/52/4
f 11/53/5 10/54/5 32/55/5 33/56/5
f 4/57/6 2/45/6 26/48/6 27/58/6
f 19/59/7 18/60/7 40/61/7 41/62/7
f 12/63/8 11/53/8 33/56/8 34/64/8
f 3/65/9 4/57/9 27/58/9 23/66/9
f 20/67/10 19/59/10 41/62/10 42/68/10
f 13/69/11 12/63/11 34/64/11 35/70/11
f 6/71/12 5/72/12 24/73/12 28/74/12
f 21/75/13 20/67/13 42/68/13 43/76/13
f 14/77/14 13/69/14 35/70/14 36/78/14
f 7/79/15 6/71/15 28/74/15 29/80/15
f 1/46/16 21/75/16 43/76/16 25/47/16
f 15/81/17 14/77/17 36/78/17 37/82/17
f 8/83/18 7/79/18 29/80/18 30/84/18
f 16/85/19 15/81/19 37/82/19 38/86/19
f 9/87/20 8/88/20 30/89/20 31/90/20
f 5/72/21 3/91/21 23/92/21 24/73/21
f 17/50/22 16/93/22 38/94/22 39/51/22
f 10/54/23 9/87/23 31/90/23 32/55/23
