# Blender v2.82 (sub 7) OBJ File: 'player_tokens.blend'
# www.blender.org
mtllib steamship.mtl
o steamship_Plane.006
v 0.190898 -0.150000 0.354404
v -0.764338 -0.150000 0.350082
v -0.798917 -0.150000 0.306859
v -0.790272 -0.150000 0.332793
v -0.807561 -0.150000 0.105870
v -0.833495 -0.150000 -0.118891
v -0.834538 -0.150000 -0.147031
v -0.818904 -0.150000 -0.167876
v -0.799102 -0.150000 -0.178298
v -0.671950 -0.150000 -0.178298
v -0.671950 -0.150000 -0.418011
v -0.664654 -0.150000 -0.438855
v -0.646936 -0.150000 -0.451362
v -0.624007 -0.150000 -0.459700
v -0.188355 -0.150000 -0.460742
v -0.188355 -0.150000 -0.628541
v -0.176891 -0.150000 -0.648344
v -0.156046 -0.150000 -0.666062
v -0.068499 -0.150000 -0.666062
v -0.049739 -0.150000 -0.653555
v -0.034106 -0.150000 -0.629583
v -0.035148 -0.150000 -0.182467
v 1.011250 -0.150000 -0.181425
v 1.035222 -0.150000 -0.166834
v 1.045644 -0.150000 -0.142862
v 1.043559 -0.150000 -0.125144
v 0.841367 -0.150000 0.328225
v 0.824691 -0.150000 0.343859
v 0.801762 -0.150000 0.352197
v -0.798917 0.150000 0.306859
v -0.807561 0.150000 0.105870
v 0.190898 0.150000 0.354404
v -0.764338 0.150000 0.350082
v -0.790272 0.150000 0.332793
v -0.833495 0.150000 -0.118891
v -0.834538 0.150000 -0.147031
v -0.818904 0.150000 -0.167876
v -0.799102 0.150000 -0.178298
v -0.671950 0.150000 -0.178298
v -0.671950 0.150000 -0.418011
v -0.664654 0.150000 -0.438855
v -0.646936 0.150000 -0.451362
v -0.624007 0.150000 -0.459700
v -0.188355 0.150000 -0.460742
v -0.188355 0.150000 -0.628541
v -0.176891 0.150000 -0.648344
v -0.156046 0.150000 -0.666062
v -0.068499 0.150000 -0.666062
v -0.049739 0.150000 -0.653555
v -0.034106 0.150000 -0.629583
v -0.035148 0.150000 -0.182467
v 1.011250 0.150000 -0.181425
v 1.035222 0.150000 -0.166834
v 1.045644 0.150000 -0.142862
v 1.043559 0.150000 -0.125144
v 0.841367 0.150000 0.328225
v 0.824691 0.150000 0.343859
v 0.801762 0.150000 0.352197
vt 0.167885 0.456855
vt 0.082944 0.394920
vt 0.082885 0.217892
vt 0.168604 0.198085
vt 0.255090 0.142652
vt 0.329554 0.159934
vt 0.316351 0.145933
vt 0.324263 0.149416
vt 0.167885 0.456855
vt 0.168604 0.198085
vt 0.082885 0.217892
vt 0.082944 0.394920
vt 0.331554 0.796316
vt 0.329033 0.805643
vt 0.324283 0.812436
vt 0.255090 0.142652
vt 0.316351 0.145933
vt 0.329554 0.159934
vt 0.331554 0.796316
vt 0.324283 0.812436
vt 0.329033 0.805643
vt 0.169108 0.882056
vt 0.186288 0.895121
vt 0.173576 0.891781
vt 0.180890 0.895988
vt 0.324263 0.149416
vt 0.031621 0.457794
vt 0.020474 0.443859
vt 0.024302 0.451469
vt 0.031805 0.395114
vt 0.020399 0.408285
vt 0.025780 0.399795
vt 0.331698 0.548089
vt 0.095549 0.198361
vt 0.085406 0.208565
vt 0.177992 0.131982
vt 0.171653 0.138360
vt 0.186569 0.132373
vt 0.168494 0.146417
vt 0.089202 0.201351
vt 0.169108 0.882056
vt 0.186288 0.895121
vt 0.180890 0.895988
vt 0.173576 0.891781
vt 0.031621 0.457794
vt 0.024302 0.451469
vt 0.020474 0.443859
vt 0.031805 0.395114
vt 0.020399 0.408285
vt 0.025780 0.399795
vt 0.331698 0.548089
vt 0.085406 0.208565
vt 0.095549 0.198361
vt 0.177992 0.131982
vt 0.186569 0.132373
vt 0.171653 0.138360
vt 0.168494 0.146417
vt 0.089202 0.201351
vt 0.536153 0.093062
vt 0.455979 0.093062
vt 0.455979 0.316286
vt 0.536153 0.316286
vt 0.898538 0.501371
vt 0.907684 0.501371
vt 0.907684 0.724594
vt 0.898538 0.724594
vt 0.829107 0.093062
vt 0.762173 0.093062
vt 0.762173 0.316286
vt 0.829107 0.316286
vt 0.273823 0.501371
vt 0.654865 0.501371
vt 0.654865 0.724594
vt 0.273823 0.724594
vt 0.837007 0.093062
vt 0.837007 0.316286
vt 0.263479 0.501371
vt 0.263479 0.724594
vt 0.516469 0.501371
vt 0.508155 0.501371
vt 0.508155 0.724594
vt 0.516469 0.724594
vt 0.445634 0.093062
vt 0.445634 0.316286
vt 0.551391 0.501371
vt 0.551391 0.724594
vt 0.625809 0.093062
vt 0.625809 0.316286
vt 0.558875 0.501371
vt 0.558875 0.724594
vt 0.637034 0.093062
vt 0.637034 0.316286
vt 0.829523 0.093062
vt 0.839085 0.093062
vt 0.839085 0.316286
vt 0.829523 0.316286
vt 0.645349 0.093062
vt 0.645349 0.316286
vt 0.651170 0.093062
vt 0.651170 0.316286
vt 0.259956 0.501371
vt 0.252058 0.501371
vt 0.252058 0.724594
vt 0.259956 0.724594
vt 0.982101 0.501371
vt 0.564696 0.501371
vt 0.564696 0.724594
vt 0.982101 0.724594
vt 0.310676 0.501371
vt 0.310676 0.724594
vt 0.991664 0.501371
vt 0.991664 0.724594
vt 0.745127 0.093062
vt 0.649507 0.093062
vt 0.649507 0.316286
vt 0.745127 0.316286
vt 0.635371 0.093062
vt 0.644933 0.093062
vt 0.644933 0.316286
vt 0.635371 0.316286
vt 0.753442 0.093062
vt 0.753442 0.316286
vt 0.628304 0.093062
vt 0.628304 0.316286
vt 0.320655 0.501371
vt 0.313587 0.501371
vt 0.313587 0.724594
vt 0.320655 0.724594
vt 0.447455 0.093062
vt 0.447455 0.316286
vt 0.329801 0.501371
vt 0.329801 0.724594
vt 0.914335 0.501371
vt 0.914335 0.724594
vt 0.503582 0.501371
vt 0.503582 0.724594
vn 0.0000 1.0000 0.0000
vn 0.0000 -1.0000 0.0000
vn -0.9991 0.0000 0.0430
vn 0.3417 0.0000 0.9398
vn -1.0000 0.0000 0.0000
vn -0.0045 0.0000 1.0000
vn 0.0036 0.0000 1.0000
vn -0.8654 0.0000 -0.5010
vn -0.5547 0.0000 0.8320
vn -0.6476 0.0000 -0.7619
vn -0.9487 0.0000 0.3162
vn 0.0000 0.0000 -1.0000
vn -0.9934 0.0000 0.1146
vn 0.5547 0.0000 -0.8321
vn -0.9993 0.0000 0.0370
vn 0.8376 0.0000 -0.5463
vn -0.8000 0.0000 -0.6000
vn 1.0000 0.0000 0.0023
vn -0.4657 0.0000 -0.8849
vn 0.0010 0.0000 -1.0000
vn 0.5199 0.0000 -0.8542
vn 0.9171 0.0000 -0.3987
vn -0.9439 0.0000 -0.3304
vn 0.9932 0.0000 0.1168
vn -0.5767 0.0000 -0.8170
vn 0.9133 0.0000 0.4073
vn -0.3417 0.0000 -0.9398
vn 0.6839 0.0000 0.7295
vn -0.0024 0.0000 -1.0000
usemtl wood_normal
s off
f 51/1/1 44/2/1 43/3/1 39/4/1
f 5/5/2 2/6/2 3/7/2
f 3/7/2 2/6/2 4/8/2
f 22/9/2 10/10/2 14/11/2 15/12/2
f 58/13/1 57/14/1 56/15/1
f 31/16/1 30/17/1 33/18/1
f 29/19/2 27/20/2 28/21/2
f 23/22/2 27/20/2 29/19/2
f 27/20/2 23/22/2 26/23/2
f 26/23/2 24/24/2 25/25/2
f 24/24/2 26/23/2 23/22/2
f 30/17/1 34/26/1 33/18/1
f 22/9/2 15/12/2 21/27/2
f 21/27/2 19/28/2 20/29/2
f 15/12/2 16/30/2 21/27/2
f 19/28/2 16/30/2 18/31/2
f 18/31/2 16/30/2 17/32/2
f 23/22/2 29/19/2 1/33/2 22/9/2
f 14/11/2 11/34/2 13/35/2
f 10/10/2 11/34/2 14/11/2
f 19/28/2 21/27/2 16/30/2
f 7/36/2 8/37/2 6/38/2
f 6/38/2 10/10/2 5/5/2
f 9/39/2 6/38/2 8/37/2
f 12/40/2 13/35/2 11/34/2
f 10/10/2 6/38/2 9/39/2
f 10/10/2 22/9/2 5/5/2
f 5/5/2 22/9/2 1/33/2 2/6/2
f 52/41/1 58/13/1 56/15/1
f 56/15/1 55/42/1 52/41/1
f 55/42/1 54/43/1 53/44/1
f 53/44/1 52/41/1 55/42/1
f 51/1/1 50/45/1 44/2/1
f 50/45/1 49/46/1 48/47/1
f 44/2/1 50/45/1 45/48/1
f 48/47/1 47/49/1 45/48/1
f 47/49/1 46/50/1 45/48/1
f 52/41/1 51/1/1 32/51/1 58/13/1
f 43/3/1 42/52/1 40/53/1
f 39/4/1 43/3/1 40/53/1
f 48/47/1 45/48/1 50/45/1
f 36/54/1 35/55/1 37/56/1
f 35/55/1 31/16/1 39/4/1
f 38/57/1 37/56/1 35/55/1
f 41/58/1 40/53/1 42/52/1
f 39/4/1 38/57/1 35/55/1
f 39/4/1 31/16/1 51/1/1
f 31/16/1 33/18/1 32/51/1 51/1/1
f 5/59/3 3/60/3 30/61/3 31/62/3
f 29/63/4 28/64/4 57/65/4 58/66/4
f 16/67/5 15/68/5 44/69/5 45/70/5
f 2/71/6 1/72/6 32/73/6 33/74/6
f 1/72/7 29/63/7 58/66/7 32/73/7
f 17/75/8 16/67/8 45/70/8 46/76/8
f 4/77/9 2/71/9 33/74/9 34/78/9
f 18/79/10 17/80/10 46/81/10 47/82/10
f 3/60/11 4/83/11 34/84/11 30/61/11
f 19/85/12 18/79/12 47/82/12 48/86/12
f 6/87/13 5/59/13 31/62/13 35/88/13
f 20/89/14 19/85/14 48/86/14 49/90/14
f 7/91/15 6/87/15 35/88/15 36/92/15
f 21/93/16 20/94/16 49/95/16 50/96/16
f 8/97/17 7/91/17 36/92/17 37/98/17
f 22/99/18 21/93/18 50/96/18 51/100/18
f 9/101/19 8/102/19 37/103/19 38/104/19
f 23/105/20 22/106/20 51/107/20 52/108/20
f 10/109/12 9/101/12 38/104/12 39/110/12
f 24/111/21 23/105/21 52/108/21 53/112/21
f 11/113/5 10/114/5 39/115/5 40/116/5
f 25/117/22 24/118/22 53/119/22 54/120/22
f 12/121/23 11/113/23 40/116/23 41/122/23
f 26/123/24 25/117/24 54/120/24 55/124/24
f 13/125/25 12/126/25 41/127/25 42/128/25
f 27/129/26 26/123/26 55/124/26 56/130/26
f 14/131/27 13/125/27 42/128/27 43/132/27
f 28/64/28 27/133/28 56/134/28 57/65/28
f 15/135/29 14/131/29 43/132/29 44/136/29
