# Blender v2.82 (sub 7) OBJ File: 'player_tokens.blend'
# www.blender.org
mtllib wagon.mtl
o wagon_Plane.002
v -0.091092 -0.150000 0.412516
v -0.103251 -0.150000 0.495894
v -0.178813 -0.150000 0.638332
v -0.131044 -0.150000 0.574061
v -0.234398 -0.150000 0.685232
v -0.309960 -0.150000 0.720841
v -0.395943 -0.150000 0.730395
v -0.485401 -0.150000 0.713025
v -0.571385 -0.150000 0.659176
v -0.626102 -0.150000 0.583615
v -0.659106 -0.150000 0.508053
v -0.666923 -0.150000 0.426412
v -0.926611 -0.150000 0.431623
v -0.953535 -0.150000 0.417727
v -0.982197 -0.150000 0.367353
v -0.978722 -0.150000 0.341297
v -0.961352 -0.150000 0.321321
v -0.936165 -0.150000 0.314373
v -0.935296 -0.150000 0.176278
v -0.915320 -0.150000 0.147616
v -0.888396 -0.150000 0.131983
v -0.767671 -0.150000 0.131983
v -0.771145 -0.150000 -0.417792
v -0.757249 -0.150000 -0.502039
v -0.707743 -0.150000 -0.576732
v -0.642604 -0.150000 -0.635791
v -0.561831 -0.150000 -0.665321
v -0.479322 -0.150000 -0.656636
v -0.412445 -0.150000 -0.621895
v -0.371625 -0.150000 -0.579337
v -0.346438 -0.150000 -0.535043
v -0.279561 -0.150000 -0.539385
v -0.241346 -0.150000 -0.603656
v -0.185761 -0.150000 -0.641003
v -0.110199 -0.150000 -0.657505
v -0.036375 -0.150000 -0.642740
v 0.007920 -0.150000 -0.607999
v 0.040924 -0.150000 -0.555887
v 0.119959 -0.150000 -0.553282
v 0.149489 -0.150000 -0.630580
v 0.211154 -0.150000 -0.693983
v 0.293664 -0.150000 -0.712222
v 0.364014 -0.150000 -0.689640
v 0.410046 -0.150000 -0.647951
v 0.443918 -0.150000 -0.597576
v 0.456946 -0.150000 -0.556756
v 0.522085 -0.150000 -0.554150
v 0.561169 -0.150000 -0.606262
v 0.629782 -0.150000 -0.644477
v 0.712292 -0.150000 -0.643608
v 0.779168 -0.150000 -0.601919
v 0.817383 -0.150000 -0.547202
v 0.826068 -0.150000 -0.486406
v 0.826068 -0.150000 0.358667
v 0.811303 -0.150000 0.382118
v 0.783511 -0.150000 0.396014
v 0.648890 -0.150000 0.396882
v 0.628914 -0.150000 0.533241
v 0.574197 -0.150000 0.643543
v 0.478659 -0.150000 0.706945
v 0.369225 -0.150000 0.733001
v 0.259791 -0.150000 0.719104
v 0.180756 -0.150000 0.667862
v 0.119091 -0.150000 0.593169
v 0.081744 -0.150000 0.512396
v 0.072190 -0.150000 0.415121
v -0.178813 0.150000 0.638332
v -0.234398 0.150000 0.685232
v -0.091092 0.150000 0.412516
v -0.103251 0.150000 0.495894
v -0.131044 0.150000 0.574061
v -0.309960 0.150000 0.720841
v -0.395943 0.150000 0.730395
v -0.485401 0.150000 0.713025
v -0.571385 0.150000 0.659176
v -0.626102 0.150000 0.583615
v -0.659106 0.150000 0.508053
v -0.666923 0.150000 0.426412
v -0.926611 0.150000 0.431623
v -0.953535 0.150000 0.417727
v -0.982197 0.150000 0.367353
v -0.978722 0.150000 0.341297
v -0.961352 0.150000 0.321321
v -0.936165 0.150000 0.314373
v -0.935296 0.150000 0.176278
v -0.915320 0.150000 0.147616
v -0.888396 0.150000 0.131983
v -0.767671 0.150000 0.131983
v -0.771145 0.150000 -0.417792
v -0.757249 0.150000 -0.502039
v -0.707743 0.150000 -0.576732
v -0.642604 0.150000 -0.635791
v -0.561831 0.150000 -0.665321
v -0.479322 0.150000 -0.656636
v -0.412445 0.150000 -0.621895
v -0.371625 0.150000 -0.579337
v -0.346438 0.150000 -0.535043
v -0.279561 0.150000 -0.539385
v -0.241346 0.150000 -0.603656
v -0.185761 0.150000 -0.641003
v -0.110199 0.150000 -0.657505
v -0.036375 0.150000 -0.642740
v 0.007920 0.150000 -0.607999
v 0.040924 0.150000 -0.555887
v 0.119959 0.150000 -0.553282
v 0.149489 0.150000 -0.630580
v 0.211154 0.150000 -0.693983
v 0.293664 0.150000 -0.712222
v 0.364014 0.150000 -0.689640
v 0.410046 0.150000 -0.647951
v 0.443918 0.150000 -0.597576
v 0.456946 0.150000 -0.556756
v 0.522085 0.150000 -0.554150
v 0.561169 0.150000 -0.606262
v 0.629782 0.150000 -0.644477
v 0.712292 0.150000 -0.643608
v 0.779168 0.150000 -0.601919
v 0.817383 0.150000 -0.547202
v 0.826068 0.150000 -0.486406
v 0.826068 0.150000 0.358667
v 0.811303 0.150000 0.382118
v 0.783511 0.150000 0.396014
v 0.648890 0.150000 0.396882
v 0.628914 0.150000 0.533241
v 0.574197 0.150000 0.643543
v 0.478659 0.150000 0.706945
v 0.369225 0.150000 0.733001
v 0.259791 0.150000 0.719104
v 0.180756 0.150000 0.667862
v 0.119091 0.150000 0.593169
v 0.081744 0.150000 0.512396
v 0.072190 0.150000 0.415121
vt 0.237881 0.558138
vt 0.203683 0.497855
vt 0.221114 0.545663
vt 0.618868 0.415410
vt 0.580507 0.255428
vt 0.605253 0.439527
vt 0.562289 0.474126
vt 0.586103 0.460806
vt 0.586565 0.776682
vt 0.596370 0.564024
vt 0.540220 0.548695
vt 0.544529 0.788106
vt 0.570619 0.550409
vt 0.596370 0.564024
vt 0.620652 0.587855
vt 0.644159 0.664456
vt 0.273061 0.881908
vt 0.535717 0.862413
vt 0.246746 0.757496
vt 0.644159 0.664456
vt 0.620652 0.587855
vt 0.628628 0.383275
vt 0.630110 0.347422
vt 0.637954 0.710408
vt 0.637946 0.619426
vt 0.623163 0.310750
vt 0.604939 0.276360
vt 0.619901 0.751462
vt 0.556451 0.243494
vt 0.530941 0.242138
vt 0.273061 0.881908
vt 0.246746 0.757496
vt 0.544529 0.788106
vt 0.535717 0.862413
vt 0.244809 0.730562
vt 0.240059 0.590830
vt 0.536585 0.481089
vt 0.546588 0.843915
vt 0.542750 0.855753
vt 0.437687 0.207178
vt 0.266752 0.218422
vt 0.237658 0.397130
vt 0.236347 0.865137
vt 0.254015 0.879711
vt 0.220535 0.804210
vt 0.222233 0.838383
vt 0.231226 0.774895
vt 0.237881 0.558138
vt 0.221114 0.545663
vt 0.203683 0.497855
vt 0.618868 0.415410
vt 0.605253 0.439527
vt 0.580507 0.255428
vt 0.231897 0.726105
vt 0.215654 0.713230
vt 0.216545 0.604851
vt 0.201900 0.695116
vt 0.193664 0.666482
vt 0.197906 0.631869
vt 0.562289 0.474126
vt 0.528068 0.134400
vt 0.491460 0.133146
vt 0.628628 0.383275
vt 0.630110 0.347422
vt 0.523283 0.123563
vt 0.499092 0.114888
vt 0.507130 0.112847
vt 0.493184 0.122547
vt 0.439991 0.145631
vt 0.435598 0.157149
vt 0.448554 0.136691
vt 0.240808 0.226124
vt 0.218449 0.248363
vt 0.223455 0.387715
vt 0.201220 0.276720
vt 0.197567 0.344866
vt 0.193440 0.310874
vt 0.209522 0.371779
vt 0.586565 0.776682
vt 0.540220 0.548695
vt 0.237465 0.424945
vt 0.570619 0.550409
vt 0.637954 0.710408
vt 0.586103 0.460806
vt 0.207505 0.466161
vt 0.218151 0.442264
vt 0.209550 0.528108
vt 0.637946 0.619426
vt 0.623163 0.310750
vt 0.604939 0.276360
vt 0.619901 0.751462
vt 0.556451 0.243494
vt 0.530941 0.242138
vt 0.244809 0.730562
vt 0.240059 0.590830
vt 0.536585 0.481089
vt 0.546588 0.843915
vt 0.542750 0.855753
vt 0.437687 0.207178
vt 0.237658 0.397130
vt 0.266752 0.218422
vt 0.254015 0.879711
vt 0.236347 0.865137
vt 0.222233 0.838383
vt 0.220535 0.804210
vt 0.231226 0.774895
vt 0.231897 0.726105
vt 0.215654 0.713230
vt 0.201900 0.695116
vt 0.216545 0.604851
vt 0.193664 0.666482
vt 0.197906 0.631869
vt 0.528068 0.134400
vt 0.491460 0.133146
vt 0.523283 0.123563
vt 0.499092 0.114888
vt 0.507130 0.112847
vt 0.493184 0.122547
vt 0.439991 0.145631
vt 0.448554 0.136691
vt 0.435598 0.157149
vt 0.240808 0.226124
vt 0.218449 0.248363
vt 0.223455 0.387715
vt 0.201220 0.276720
vt 0.197567 0.344866
vt 0.193440 0.310874
vt 0.209522 0.371779
vt 0.237465 0.424945
vt 0.207505 0.466161
vt 0.218151 0.442264
vt 0.209550 0.528108
vt 0.410954 0.280757
vt 0.467511 0.280757
vt 0.467511 0.508427
vt 0.410954 0.508427
vt 0.506426 0.016174
vt 0.478687 0.016174
vt 0.478687 0.243844
vt 0.506426 0.243844
vt 0.493818 0.016174
vt 0.525158 0.016174
vt 0.525158 0.243844
vt 0.493818 0.243844
vt 0.365205 0.280757
vt 0.365205 0.508427
vt 0.882496 0.280757
vt 0.855839 0.280757
vt 0.855839 0.508427
vt 0.882496 0.508427
vt 0.458155 0.016174
vt 0.458155 0.243844
vt 0.820907 0.016174
vt 0.860532 0.016174
vt 0.860532 0.243844
vt 0.820907 0.243844
vt 0.545331 0.016174
vt 0.522276 0.016174
vt 0.522276 0.243844
vt 0.545331 0.243844
vt 0.421051 0.016174
vt 0.421051 0.243844
vt 0.775518 0.016174
vt 0.775518 0.243844
vt 0.576670 0.016174
vt 0.576670 0.243844
vt 0.385388 0.016174
vt 0.385388 0.243844
vt 0.730128 0.016174
vt 0.730128 0.243844
vt 0.607290 0.016174
vt 0.607290 0.243844
vt 0.390061 0.280757
vt 0.358721 0.280757
vt 0.358721 0.508427
vt 0.390061 0.508427
vt 0.697348 0.016174
vt 0.697348 0.243844
vt 0.625662 0.016174
vt 0.625662 0.243844
vt 0.421401 0.280757
vt 0.421401 0.508427
vt 0.386098 0.280757
vt 0.355119 0.280757
vt 0.355119 0.508427
vt 0.386098 0.508427
vt 0.862684 0.280757
vt 0.884297 0.280757
vt 0.884297 0.508427
vt 0.862684 0.508427
vt 0.455263 0.280757
vt 0.455263 0.508427
vt 0.419600 0.280757
vt 0.419600 0.508427
vt 0.672131 0.016174
vt 0.639351 0.016174
vt 0.639351 0.243844
vt 0.672131 0.243844
vt 0.238054 0.016174
vt 0.345763 0.016174
vt 0.345763 0.243844
vt 0.238054 0.243844
vt 0.459946 0.280757
vt 0.459946 0.508427
vt 0.893663 0.280757
vt 0.861603 0.280757
vt 0.861603 0.508427
vt 0.893663 0.508427
vt 0.226887 0.016174
vt 0.226887 0.243844
vt 0.584596 0.016174
vt 0.652320 0.016174
vt 0.652320 0.243844
vt 0.584596 0.243844
vt 0.919960 0.280757
vt 0.919960 0.508427
vt 0.479758 0.280757
vt 0.458865 0.280757
vt 0.458865 0.508427
vt 0.479758 0.508427
vt 0.744177 0.016174
vt 0.709956 0.016174
vt 0.709956 0.243844
vt 0.744177 0.243844
vt 0.490565 0.280757
vt 0.490565 0.508427
vt 0.773357 0.016174
vt 0.773357 0.243844
vt 0.498851 0.280757
vt 0.498851 0.508427
vt 0.792449 0.016174
vt 0.792449 0.243844
vt 0.234091 0.016174
vt 0.223644 0.016174
vt 0.223644 0.243844
vt 0.234091 0.243844
vt 0.879975 0.280757
vt 0.900868 0.280757
vt 0.900868 0.508427
vt 0.879975 0.508427
vt 0.559009 0.280757
vt 0.501732 0.280757
vt 0.501732 0.508427
vt 0.559009 0.508427
vt 0.863044 0.280757
vt 0.863044 0.508427
vt 0.570897 0.280757
vt 0.570897 0.508427
vt 0.838918 0.016174
vt 0.811902 0.016174
vt 0.811902 0.243844
vt 0.838918 0.243844
vt 0.253904 0.016174
vt 0.242737 0.016174
vt 0.242737 0.243844
vt 0.253904 0.243844
vt 0.883577 0.280757
vt 0.861963 0.280757
vt 0.861963 0.508427
vt 0.883577 0.508427
vt 0.303976 0.016174
vt 0.303976 0.243844
vt 0.883587 0.016174
vt 0.855129 0.016174
vt 0.855129 0.243844
vt 0.883587 0.243844
vt 0.805407 0.280757
vt 0.577381 0.280757
vt 0.577381 0.508427
vt 0.805407 0.508427
vt 0.917809 0.016174
vt 0.917809 0.243844
vt 0.840349 0.280757
vt 0.840349 0.508427
vt 0.945547 0.016174
vt 0.945547 0.243844
vt 0.871329 0.280757
vt 0.871329 0.508427
vt 0.859081 0.280757
vt 0.881776 0.280757
vt 0.881776 0.508427
vt 0.859081 0.508427
vt 0.355849 0.016174
vt 0.328832 0.016174
vt 0.328832 0.243844
vt 0.355849 0.243844
vt 0.833865 0.280757
vt 0.833865 0.508427
vt 0.389351 0.016174
vt 0.389351 0.243844
vt 0.483361 0.280757
vt 0.483361 0.508427
vt 0.423572 0.016174
vt 0.423572 0.243844
vt 0.548213 0.016174
vt 0.548213 0.243844
vt 0.473634 0.280757
vt 0.473634 0.508427
vt 0.451310 0.016174
vt 0.451310 0.243844
vt 0.426444 0.280757
vt 0.461026 0.280757
vt 0.461026 0.508427
vt 0.426444 0.508427
vt 0.947348 0.016174
vt 0.958875 0.016174
vt 0.958875 0.243844
vt 0.947348 0.243844
vt 0.872410 0.280757
vt 0.890061 0.280757
vt 0.890061 0.508427
vt 0.872410 0.508427
vt 0.394024 0.280757
vt 0.394024 0.508427
vt 0.891513 0.016174
vt 0.891513 0.243844
vt 0.854038 0.280757
vt 0.854038 0.508427
vt 0.367366 0.280757
vt 0.367366 0.508427
vn 0.0000 -1.0000 0.0000
vn 0.0000 1.0000 0.0000
vn 0.9894 0.0000 0.1449
vn -0.0648 0.0000 -0.9979
vn 0.4263 0.0000 0.9046
vn 0.8958 0.0000 0.4444
vn -0.8595 0.0000 -0.5111
vn 0.1104 0.0000 0.9939
vn 0.5530 0.0000 0.8332
vn -0.5577 0.0000 -0.8301
vn -0.1906 0.0000 0.9817
vn 0.2316 0.0000 0.9728
vn -0.2134 0.0000 -0.9770
vn -0.5308 0.0000 0.8475
vn -0.1260 0.0000 0.9920
vn 0.1961 0.0000 -0.9806
vn -0.8099 0.0000 0.5865
vn -0.5440 0.0000 0.8391
vn 0.6171 0.0000 -0.7869
vn -0.9164 0.0000 0.4003
vn -0.7712 0.0000 0.6366
vn 0.8448 0.0000 -0.5351
vn -0.9954 0.0000 0.0953
vn -0.9077 0.0000 0.4197
vn 0.0329 0.0000 -0.9995
vn 0.0201 0.0000 0.9998
vn -0.9952 0.0000 0.0977
vn -0.9342 0.0000 -0.3569
vn -0.4586 0.0000 0.8886
vn -0.0160 0.0000 0.9999
vn -0.7169 0.0000 -0.6972
vn -0.8692 0.0000 0.4945
vn -0.2158 0.0000 -0.9764
vn -0.9912 0.0000 -0.1322
vn 0.3056 0.0000 -0.9522
vn -0.7546 0.0000 -0.6562
vn 0.6713 0.0000 -0.7412
vn -0.2659 0.0000 -0.9640
vn 0.8298 0.0000 -0.5580
vn -1.0000 0.0000 -0.0063
vn 0.9527 0.0000 -0.3040
vn -0.8204 0.0000 -0.5718
vn 0.0400 0.0000 -0.9992
vn -0.5021 0.0000 -0.8648
vn -0.8000 0.0000 -0.6000
vn 0.0000 0.0000 -1.0000
vn -0.4866 0.0000 -0.8736
vn -1.0000 0.0000 0.0063
vn 0.0105 0.0000 -0.9999
vn -0.9867 0.0000 -0.1627
vn 0.5290 0.0000 -0.8486
vn -0.8335 0.0000 -0.5525
vn 0.8198 0.0000 -0.5726
vn -0.6717 0.0000 -0.7408
vn 0.9899 0.0000 -0.1414
vn -0.3434 0.0000 -0.9392
vn 1.0000 0.0000 0.0000
vn 0.1047 0.0000 -0.9945
vn 0.6449 0.0000 0.7643
vn 0.8462 0.0000 0.5328
vn 0.4610 0.0000 -0.8874
vn 0.9895 0.0000 0.1443
vn 0.4472 0.0000 0.8944
vn 0.7217 0.0000 -0.6922
vn 0.9422 0.0000 0.3350
vn 0.0065 0.0000 1.0000
vn 0.8693 0.0000 -0.4943
vn 0.8026 0.0000 0.5965
usemtl wood_normal
s off
f 38/1/1 35/2/1 37/3/1
f 5/4/1 10/5/1 3/6/1
f 3/6/1 2/7/1 4/8/1
f 58/9/1 64/10/1 66/11/1 57/12/1
f 66/11/1 64/10/1 65/13/1
f 3/6/1 10/5/1 2/7/1
f 130/14/2 129/15/2 127/16/2
f 53/17/1 54/18/1 57/12/1 47/19/1
f 64/10/1 61/20/1 63/21/1
f 6/22/1 7/23/1 5/4/1
f 64/10/1 60/24/1 61/20/1
f 63/21/1 61/20/1 62/25/1
f 5/4/1 7/23/1 10/5/1
f 8/26/1 10/5/1 7/23/1
f 64/10/1 58/9/1 60/24/1
f 9/27/1 10/5/1 8/26/1
f 60/24/1 58/9/1 59/28/1
f 11/29/1 12/30/1 10/5/1
f 119/31/2 113/32/2 123/33/2 120/34/2
f 46/35/1 57/12/1 66/11/1 39/36/1
f 10/5/1 12/30/1 1/37/1 2/7/1
f 57/12/1 54/18/1 56/38/1
f 56/38/1 54/18/1 55/39/1
f 22/40/1 23/41/1 31/42/1 1/37/1
f 53/17/1 51/43/1 52/44/1
f 51/43/1 49/45/1 50/46/1
f 49/45/1 51/43/1 48/47/1
f 104/48/2 103/49/2 101/50/2
f 68/51/2 67/52/2 76/53/2
f 46/35/1 39/36/1 45/54/1
f 51/43/1 53/17/1 47/19/1 48/47/1
f 44/55/1 40/56/1 43/57/1
f 40/56/1 42/58/1 43/57/1
f 40/56/1 41/59/1 42/58/1
f 67/52/2 70/60/2 76/53/2
f 47/19/1 57/12/1 46/35/1
f 13/61/1 18/62/1 12/30/1
f 12/30/1 22/40/1 1/37/1
f 72/63/2 68/51/2 73/64/2
f 14/65/1 18/62/1 13/61/1
f 12/30/1 18/62/1 22/40/1
f 16/66/1 18/62/1 15/67/1
f 15/67/1 18/62/1 14/65/1
f 18/62/1 16/66/1 17/68/1
f 20/69/1 21/70/1 19/71/1
f 19/71/1 22/40/1 18/62/1
f 22/40/1 19/71/1 21/70/1
f 24/72/1 25/73/1 23/41/1
f 31/42/1 23/41/1 25/73/1 30/74/1
f 26/75/1 30/74/1 25/73/1
f 44/55/1 45/54/1 39/36/1 40/56/1
f 28/76/1 26/75/1 27/77/1
f 30/74/1 26/75/1 29/78/1
f 29/78/1 26/75/1 28/76/1
f 124/79/2 123/33/2 132/80/2 130/14/2
f 32/81/1 1/37/1 31/42/1
f 132/80/2 131/82/2 130/14/2
f 130/14/2 127/16/2 126/83/2
f 67/52/2 71/84/2 70/60/2
f 32/81/1 38/1/1 1/37/1
f 34/85/1 32/81/1 33/86/1
f 35/2/1 38/1/1 34/85/1
f 34/85/1 38/1/1 32/81/1
f 37/3/1 35/2/1 36/87/1
f 66/11/1 1/37/1 38/1/1 39/36/1
f 129/15/2 128/88/2 127/16/2
f 68/51/2 76/53/2 73/64/2
f 74/89/2 73/64/2 76/53/2
f 130/14/2 126/83/2 124/79/2
f 75/90/2 74/89/2 76/53/2
f 126/83/2 125/91/2 124/79/2
f 77/92/2 76/53/2 78/93/2
f 112/94/2 105/95/2 132/80/2 123/33/2
f 76/53/2 70/60/2 69/96/2 78/93/2
f 123/33/2 122/97/2 120/34/2
f 122/97/2 121/98/2 120/34/2
f 88/99/2 69/96/2 97/100/2 89/101/2
f 119/31/2 118/102/2 117/103/2
f 117/103/2 116/104/2 115/105/2
f 115/105/2 114/106/2 117/103/2
f 112/94/2 111/107/2 105/95/2
f 117/103/2 114/106/2 113/32/2 119/31/2
f 110/108/2 109/109/2 106/110/2
f 106/110/2 109/109/2 108/111/2
f 106/110/2 108/111/2 107/112/2
f 113/32/2 112/94/2 123/33/2
f 79/113/2 78/93/2 84/114/2
f 78/93/2 69/96/2 88/99/2
f 80/115/2 79/113/2 84/114/2
f 78/93/2 88/99/2 84/114/2
f 82/116/2 81/117/2 84/114/2
f 81/117/2 80/115/2 84/114/2
f 84/114/2 83/118/2 82/116/2
f 86/119/2 85/120/2 87/121/2
f 85/120/2 84/114/2 88/99/2
f 88/99/2 87/121/2 85/120/2
f 90/122/2 89/101/2 91/123/2
f 97/100/2 96/124/2 91/123/2 89/101/2
f 92/125/2 91/123/2 96/124/2
f 110/108/2 106/110/2 105/95/2 111/107/2
f 94/126/2 93/127/2 92/125/2
f 96/124/2 95/128/2 92/125/2
f 95/128/2 94/126/2 92/125/2
f 98/129/2 97/100/2 69/96/2
f 98/129/2 69/96/2 104/48/2
f 100/130/2 99/131/2 98/129/2
f 101/50/2 100/130/2 104/48/2
f 100/130/2 98/129/2 104/48/2
f 103/49/2 102/132/2 101/50/2
f 132/80/2 105/95/2 104/48/2 69/96/2
f 58/133/3 57/134/3 123/135/3 124/136/3
f 32/137/4 31/138/4 97/139/4 98/140/4
f 6/141/5 5/142/5 68/143/5 72/144/5
f 59/145/6 58/133/6 124/136/6 125/146/6
f 33/147/7 32/148/7 98/149/7 99/150/7
f 7/151/8 6/141/8 72/144/8 73/152/8
f 60/153/9 59/154/9 125/155/9 126/156/9
f 34/157/10 33/158/10 99/159/10 100/160/10
f 8/161/11 7/151/11 73/152/11 74/162/11
f 61/163/12 60/153/12 126/156/12 127/164/12
f 35/165/13 34/157/13 100/160/13 101/166/13
f 9/167/14 8/161/14 74/162/14 75/168/14
f 62/169/15 61/163/15 127/164/15 128/170/15
f 36/171/16 35/165/16 101/166/16 102/172/16
f 10/173/17 9/174/17 75/175/17 76/176/17
f 63/177/18 62/169/18 128/170/18 129/178/18
f 37/179/19 36/171/19 102/172/19 103/180/19
f 11/181/20 10/173/20 76/176/20 77/182/20
f 64/183/21 63/184/21 129/185/21 130/186/21
f 38/187/22 37/188/22 103/189/22 104/190/22
f 12/191/23 11/181/23 77/182/23 78/192/23
f 65/193/24 64/183/24 130/186/24 131/194/24
f 39/195/25 38/196/25 104/197/25 105/198/25
f 13/199/26 12/200/26 78/201/26 79/202/26
f 66/203/27 65/193/27 131/194/27 132/204/27
f 40/205/28 39/206/28 105/207/28 106/208/28
f 14/209/29 13/199/29 79/202/29 80/210/29
f 1/211/30 66/212/30 132/213/30 69/214/30
f 41/215/31 40/205/31 106/208/31 107/216/31
f 15/217/32 14/218/32 80/219/32 81/220/32
f 42/221/33 41/222/33 107/223/33 108/224/33
f 16/225/34 15/217/34 81/220/34 82/226/34
f 43/227/35 42/221/35 108/224/35 109/228/35
f 17/229/36 16/225/36 82/226/36 83/230/36
f 44/231/37 43/227/37 109/228/37 110/232/37
f 18/233/38 17/234/38 83/235/38 84/236/38
f 45/237/39 44/238/39 110/239/39 111/240/39
f 19/241/40 18/242/40 84/243/40 85/244/40
f 46/245/41 45/237/41 111/240/41 112/246/41
f 20/247/42 19/241/42 85/244/42 86/248/42
f 47/249/43 46/250/43 112/251/43 113/252/43
f 21/253/44 20/254/44 86/255/44 87/256/44
f 48/257/45 47/258/45 113/259/45 114/260/45
f 22/261/46 21/253/46 87/256/46 88/262/46
f 49/263/47 48/264/47 114/265/47 115/266/47
f 23/267/48 22/268/48 88/269/48 89/270/48
f 50/271/49 49/263/49 115/266/49 116/272/49
f 24/273/50 23/267/50 89/270/50 90/274/50
f 51/275/51 50/271/51 116/272/51 117/276/51
f 25/277/52 24/273/52 90/274/52 91/278/52
f 52/279/53 51/280/53 117/281/53 118/282/53
f 26/283/54 25/284/54 91/285/54 92/286/54
f 53/287/55 52/279/55 118/282/55 119/288/55
f 27/289/56 26/283/56 92/286/56 93/290/56
f 54/291/57 53/287/57 119/288/57 120/292/57
f 28/293/58 27/289/58 93/290/58 94/294/58
f 5/142/59 3/295/59 67/296/59 68/143/59
f 55/297/60 54/291/60 120/292/60 121/298/60
f 29/299/61 28/293/61 94/294/61 95/300/61
f 2/301/62 1/302/62 69/303/62 70/304/62
f 56/305/63 55/306/63 121/307/63 122/308/63
f 30/309/64 29/310/64 95/311/64 96/312/64
f 4/313/65 2/301/65 70/304/65 71/314/65
f 57/315/66 56/305/66 122/308/66 123/316/66
f 31/317/67 30/309/67 96/312/67 97/318/67
f 3/319/68 4/313/68 71/314/68 67/320/68
