# Blender v2.82 (sub 7) OBJ File: 'player_tokens.blend'
# www.blender.org
mtllib wall.mtl
o wall_Cube
v -1.250000 -0.150000 0.150000
v -1.250000 0.150000 0.150000
v -1.250000 -0.150000 -0.150000
v -1.250000 0.150000 -0.150000
v 1.250000 -0.150000 0.150000
v 1.250000 0.150000 0.150000
v 1.250000 -0.150000 -0.150000
v 1.250000 0.150000 -0.150000
vt 0.859580 0.165949
vt 0.615409 0.165736
vt 0.615249 0.491297
vt 0.859420 0.491510
vt 0.914277 0.550641
vt 0.678295 0.553916
vt 0.680751 0.868557
vt 0.916732 0.865283
vt 0.859420 0.491510
vt 0.615249 0.491297
vt 0.615409 0.165736
vt 0.859580 0.165949
vt 0.916732 0.865283
vt 0.680751 0.868557
vt 0.678295 0.553916
vt 0.914277 0.550641
vt 0.335287 0.590940
vt 0.477338 0.590940
vt 0.477338 0.401539
vt 0.335287 0.401539
vt 0.334810 0.590300
vt 0.335768 0.400903
vt 0.477815 0.402179
vt 0.476858 0.591576
vn -1.0000 0.0000 0.0000
vn 0.0000 0.0000 -1.0000
vn 1.0000 0.0000 0.0000
vn 0.0000 0.0000 1.0000
vn 0.0000 -1.0000 0.0000
vn 0.0000 1.0000 0.0000
usemtl wood_normal
s off
f 1/1/1 2/2/1 4/3/1 3/4/1
f 3/5/2 4/6/2 8/7/2 7/8/2
f 7/9/3 8/10/3 6/11/3 5/12/3
f 5/13/4 6/14/4 2/15/4 1/16/4
f 3/17/5 7/18/5 5/19/5 1/20/5
f 8/21/6 4/22/6 2/23/6 6/24/6
